<svg xmlns="http://www.w3.org/2000/svg" style="display:none">

  <symbol id="plus" viewBox="0 0 46 46" fill="none" stroke="currentColor" stroke-width="6" stroke-linecap="round" stroke-linejoin="round">
    <path d="M23 3V22M23 22V43M23 22H3M23 22H43" />
  </symbol>
  <symbol id="delete" viewBox="0 0 46 46" fill="none" stroke="currentColor" stroke-width="6" stroke-linecap="round" stroke-linejoin="round">
    <path d="M38 46V48C39.1046 48 40 47.1046 40 46H38ZM10 46H8C8 47.1046 8.89543 48 10 48V46ZM2 9C0.895431 9 1.19209e-07 9.89543 0 11C0 12.1046 0.89543 13 2 13L2 11L2 9ZM46 13C47.1046 13 48 12.1046 48 11C48 9.89543 47.1046 9 46 9V11V13ZM12.0379 9.61273C11.824 10.6964 12.5291 11.7483 13.6127 11.9621C14.6964 12.176 15.7483 11.4709 15.9621 10.3873L14 10L12.0379 9.61273ZM15.5789 2V0C14.6237 0 13.8018 0.675547 13.6168 1.61273L15.5789 2ZM32.4211 2L34.3832 1.61273C34.1982 0.675547 33.3763 0 32.4211 0V2ZM32.0379 10.3873C32.2517 11.4709 33.3036 12.176 34.3873 11.9621C35.4709 11.7483 36.176 10.6964 35.9621 9.61273L34 10L32.0379 10.3873ZM38 11H36V46H38H40V11H38ZM38 46V44H10V46V48H38V46ZM10 46H12V11H10H8V46H10ZM2 11L2 13L46 13V11V9L2 9L2 11ZM14 10L15.9621 10.3873L17.5411 2.38727L15.5789 2L13.6168 1.61273L12.0379 9.61273L14 10ZM15.5789 2V4H32.4211V2V0H15.5789V2ZM32.4211 2L30.4589 2.38727L32.0379 10.3873L34 10L35.9621 9.61273L34.3832 1.61273L32.4211 2Z"/>
  </symbol>
</svg>
