<svg xmlns="http://www.w3.org/2000/svg" style="display:none">
  <symbol id="plus" viewBox="0 0 24 24" fill="currentColor">
    <path d="M10 22V14H2C0.895431 14 0 13.1046 0 12C0 10.8954 0.895431 10 2 10H10V2C10 0.89543 10.8954 0 12 0C13.1046 0 14 0.89543 14 2V10H22C23.1046 10 24 10.8954 24 12C24 13.1046 23.1046 14 22 14H14V22C14 23.1046 13.1046 24 12 24C10.8954 24 10 23.1046 10 22Z"/>
  </symbol>
  <symbol id="delete" viewBox="0 0 48 48" fill="currentColor">
    <path d="M34 12H10V42C10 43.1046 10.8954 44 12 44H32C33.1046 44 34 43.1046 34 42V12ZM16.8662 4C15.9113 4.0002 15.0894 4.67545 14.9043 5.6123L14.4326 8H29.5674L29.0957 5.6123C28.9106 4.67545 28.0887 4.0002 27.1338 4H16.8662ZM38 42C38 45.3137 35.3137 48 32 48H12C8.68629 48 6 45.3137 6 42V12H2C0.89543 12 0 11.1046 0 10C0 8.89543 0.89543 8 2 8H10.3564L10.9805 4.83789C11.5355 2.02665 14.0007 0.000201407 16.8662 0H27.1338C29.9993 0.000201408 32.4645 2.02665 33.0195 4.83789L33.6436 8H41.5C42.6046 8 43.5 8.89543 43.5 10C43.5 11.1046 42.6046 12 41.5 12H38V42Z"/>
  </symbol>
  <symbol id="check" viewBox="0 0 37 25" fill="currentColor">
    <path d="M31.3153 0.94402C32.4508 -0.26243 34.349 -0.320228 35.5555 0.815114C36.762 1.9506 36.8198 3.84882 35.6844 5.05535L17.8358 24.0202L1.18639 11.3893C-0.133262 10.3879 -0.391064 8.50607 0.610214 7.18621C1.61167 5.86656 3.49347 5.60876 4.81334 6.61004L17.1639 15.9792L31.3153 0.94402Z"/>
  </symbol>
  <symbol id="wait" viewBox="0 0 50 12" fill="currentColor">
    <path d="M12 6C12 9.31371 9.31371 12 6 12C2.68629 12 0 9.31371 0 6C0 2.68629 2.68629 0 6 0C9.31371 0 12 2.68629 12 6Z"/>
    <path d="M31 6C31 9.31371 28.3137 12 25 12C21.6863 12 19 9.31371 19 6C19 2.68629 21.6863 0 25 0C28.3137 0 31 2.68629 31 6Z"/>
    <path d="M50 6C50 9.31371 47.3137 12 44 12C40.6863 12 38 9.31371 38 6C38 2.68629 40.6863 0 44 0C47.3137 0 50 2.68629 50 6Z"/>
  </symbol>
  <symbol id="chat" viewBox="0 0 26 26" fill="currentColor">
    <path d="M13 26C11.2495 26 9.57988 25.6537 8.05566 25.0264C6.95276 24.5726 4.42604 26.2239 3.5 25.5C2.63812 24.8262 3.3631 21.7935 2.69531 20.9268C1.00509 18.7328 0 15.9837 0 13C0 5.8203 5.8203 0 13 0C20.1797 0 26 5.8203 26 13C26 20.1797 20.1797 26 13 26Z"/>
  </symbol>
  <symbol id="slots" viewBox="0 0 24 24" fill="currentColor">
    <rect width="11" height="11" rx="1"/>
    <path d="M13 1C13 0.447715 13.4477 0 14 0H18.0858C18.351 0 18.6054 0.105357 18.7929 0.292893L23.7071 5.20711C23.8946 5.39464 24 5.649 24 5.91421V10C24 10.5523 23.5523 11 23 11H14C13.4477 11 13 10.5523 13 10V1Z" fill="black"/>
    <rect y="13" width="11" height="11" rx="1"/>
    <rect x="13" y="13" width="11" height="11" rx="1"/>
  </symbol>
  <symbol id="user" viewBox="0 0 20 24" fill="currentColor">
    <path d="M20 4C20 6.20914 18.4 8 16 8C13.6 8 12 6.20914 12 4C12 1.79086 13.6 0 16 0C18.4 0 20 1.79086 20 4Z"/>
    <path d="M8 4C8 6.20914 6.4 8 4 8C1.6 8 0 6.20914 0 4C0 1.79086 1.6 0 4 0C6.4 0 8 1.79086 8 4Z"/>
    <path d="M4 18H16C16 18 15.1429 24 10 24C4.85714 24 4 18 4 18Z"/>
  </symbol>
  <symbol id="arrow-down" viewBox="0 0 23 13" fill="currentColor">
    <path d="M0.361256 0.523365C0.900436 -0.105327 1.84761 -0.177786 2.47649 0.361256L11.9491 8.48137L20.4687 0.41106C21.0701 -0.158528 22.0191 -0.132667 22.5888 0.468678C23.1584 1.07008 23.1325 2.0191 22.5312 2.58879L12.0497 12.5185L0.523365 2.6386C-0.105327 2.09942 -0.177786 1.15225 0.361256 0.523365Z"/>
  </symbol>
  <symbol id="close" viewBox="0 0 19 19" fill="currentColor">
    <path d="M0.585794 14.7279L6.24265 9.07107L0.585794 3.41421C-0.195254 2.63316 -0.195254 1.36683 0.585794 0.585786C1.36684 -0.195262 2.63317 -0.195262 3.41422 0.585786L9.07108 6.24264L14.7279 0.585786C15.509 -0.195263 16.7753 -0.195262 17.5564 0.585786C18.3374 1.36683 18.3374 2.63316 17.5564 3.41421L11.8995 9.07107L17.5564 14.7279C18.3374 15.509 18.3374 16.7753 17.5564 17.5563C16.7753 18.3374 15.509 18.3374 14.7279 17.5563L9.07108 11.8995L3.41422 17.5563C2.63317 18.3374 1.36684 18.3374 0.585794 17.5563C-0.195254 16.7753 -0.195255 15.509 0.585794 14.7279Z"/>
  </symbol>
</svg>
