<svg xmlns="http://www.w3.org/2000/svg" style="display:none">
  <symbol id="plus" viewBox="0 0 46 46" fill="" stroke="currentColor" stroke-width="6" stroke-linecap="round" stroke-linejoin="round">
    <path d="M23 3V22M23 22V43M23 22H3M23 22H43" />
  </symbol>
  <symbol id="delete" viewBox="0 0 48 48" fill="currentColor">
    <path d="M34 12H10V42C10 43.1046 10.8954 44 12 44H32C33.1046 44 34 43.1046 34 42V12ZM16.8662 4C15.9113 4.0002 15.0894 4.67545 14.9043 5.6123L14.4326 8H29.5674L29.0957 5.6123C28.9106 4.67545 28.0887 4.0002 27.1338 4H16.8662ZM38 42C38 45.3137 35.3137 48 32 48H12C8.68629 48 6 45.3137 6 42V12H2C0.89543 12 0 11.1046 0 10C0 8.89543 0.89543 8 2 8H10.3564L10.9805 4.83789C11.5355 2.02665 14.0007 0.000201407 16.8662 0H27.1338C29.9993 0.000201408 32.4645 2.02665 33.0195 4.83789L33.6436 8H41.5C42.6046 8 43.5 8.89543 43.5 10C43.5 11.1046 42.6046 12 41.5 12H38V42Z"/>
  </symbol>
  <symbol id="check" viewBox="0 0 37 25" fill="currentColor">
    <path d="M31.3153 0.94402C32.4508 -0.26243 34.349 -0.320228 35.5555 0.815114C36.762 1.9506 36.8198 3.84882 35.6844 5.05535L17.8358 24.0202L1.18639 11.3893C-0.133262 10.3879 -0.391064 8.50607 0.610214 7.18621C1.61167 5.86656 3.49347 5.60876 4.81334 6.61004L17.1639 15.9792L31.3153 0.94402Z"/>
  </symbol>
  <symbol id="wait" viewBox="0 0 50 12" fill="currentColor">
    <path d="M12 6C12 9.31371 9.31371 12 6 12C2.68629 12 0 9.31371 0 6C0 2.68629 2.68629 0 6 0C9.31371 0 12 2.68629 12 6Z"/>
    <path d="M31 6C31 9.31371 28.3137 12 25 12C21.6863 12 19 9.31371 19 6C19 2.68629 21.6863 0 25 0C28.3137 0 31 2.68629 31 6Z"/>
    <path d="M50 6C50 9.31371 47.3137 12 44 12C40.6863 12 38 9.31371 38 6C38 2.68629 40.6863 0 44 0C47.3137 0 50 2.68629 50 6Z"/>
  </symbol>
</svg>
