<?xml version="1.0" encoding="UTF-8" standalone="no"?>
<!DOCTYPE svg PUBLIC "-//W3C//DTD SVG 1.1//EN" "http://www.w3.org/Graphics/SVG/1.1/DTD/svg11.dtd">
<svg width="100%" height="100%" viewBox="0 0 227 116" version="1.1" xmlns="http://www.w3.org/2000/svg" xmlns:xlink="http://www.w3.org/1999/xlink" xml:space="preserve" xmlns:serif="http://www.serif.com/" style="fill-rule:evenodd;clip-rule:evenodd;stroke-linejoin:round;stroke-miterlimit:2;">
    <g transform="matrix(1,0,0,1,-51.081779,-102.54578)">
        <g transform="matrix(0.617828,0,0,2.52993,0,47.682299)">
            <g transform="matrix(1.618573,0,0,0.395268,-4.596369,-37.554529)">
                <g transform="matrix(1.061433,0,0,1,-8.210971,0)">
                    <g transform="matrix(59.577761,0,0,59.577761,275.274347,216.926709)">
                    </g>
                    <text x="133.658px" y="216.927px" style="font-family:'Ruina';font-size:59.578px;fill:rgb(248,89,53);">TODO</text>
                </g>
            </g>
            <g transform="matrix(4.674352,0,0,1.141512,-940.04813,-163.11398)">
                <g transform="matrix(1.061433,0,0,1,-13.565849,0)">
                    <g transform="matrix(19.459675,0,0,19.459675,293.798382,201.698347)">
                    </g>
                    <text x="220.825px" y="201.698px" style="font-family:'Ruina';font-size:19.46px;fill:white;">du dodo</text>
                </g>
            </g>
            <g transform="matrix(-0.558931,0.05347,0.896591,0.558931,474.307445,-23.395621)">
                <g>
                    <g transform="matrix(1.618573,0,0,0.395268,0,-18.847282)">
                        <path d="M428,213C427.822,213.245 419.554,216.039 418.339,216.237C415.109,216.763 408.252,213.301 408.053,215.761C407.902,217.625 415.256,217.937 416,218C416.425,218.036 416.56,218.162 416.51,218.35C416.301,219.143 411.823,223.043 413,224C414.278,225.039 417.135,221.455 420.201,219.819C420.762,219.52 423.675,222.805 424.308,222.411C426.007,221.355 422,218 422,218C421.734,216.714 422.094,216.276 427,215C431.906,213.724 428,213 428,213Z" style="fill:rgb(248,89,53);"/>
                    </g>
                    <g transform="matrix(0.665155,0,0,0.205801,478.041562,-19.200392)">
                        <path d="M187.7,276.508C196.958,276.452 204.274,272.45 217.672,272.214C222.521,272.129 227.53,283.557 232.617,283.453C265.19,282.787 308.268,281.77 325.966,280.762C362.342,278.69 399.54,313.105 389,354C378.46,394.895 339,402 339,402C339,402 287.068,415.268 256,400C224.932,384.732 180.634,314.024 187.7,276.508Z" style="fill:rgb(248,89,53);"/>
                    </g>
                    <g transform="matrix(1.618573,0,0,0.395268,0,-18.847282)">
                        <path d="M444,153C444,153 459.861,138.335 467,139C474.139,139.665 461.659,150.796 464.238,148.586C466.17,146.929 469.781,146.214 470,149C470.463,154.902 459.002,156.966 461.298,157.177C464.362,157.459 467.949,160.179 468,162C468.09,165.186 458.706,167.101 455,167" style="fill:rgb(248,89,53);"/>
                    </g>
                    <g transform="matrix(1.618573,0,0,0.395268,1.618573,-19.242549)">
                        <path d="M370,136C370,136 358.93,116.68 372,110C378.496,106.68 392.765,105.17 401.977,111.258C413.401,118.809 390.88,139.046 389,151" style="fill:rgb(248,89,53);"/>
                    </g>
                    <g transform="matrix(1.618573,0,0,0.395268,-1.618573,-18.847282)">
                        <path d="M387.016,141.748C387.016,141.748 362.213,122.162 347,118C336.93,115.245 317.832,135.601 328,149C339.084,163.607 347.102,158.68 349.662,161.548C351.043,163.095 353,155 353,155L374,151" style="fill:rgb(248,89,53);"/>
                    </g>
                    <g transform="matrix(1.618573,0,0,0.395268,0,-18.847282)">
                        <path d="M419,217L419,209L422,210C421.174,213.997 420.427,218.754 419,217Z" style="fill:rgb(248,89,53);"/>
                    </g>
                </g>
                <g transform="matrix(1.071241,0.080208,-0.632872,0.504082,293.064661,-61.410314)">
                    <path d="M375.465,122.541C377.948,122.541 378,124.016 378,126.5C378,128.984 377.037,131.453 372.58,131.088C370.127,130.887 369,128.984 369,126.5C369,124.016 372.981,122.541 375.465,122.541Z" style="fill:white;"/>
                </g>
                <g transform="matrix(1.618573,0,0,0.395268,0,-18.847282)">
                    <path d="M384.316,143.757C383.929,143.837 384.03,143.998 383.049,145.113C378.469,150.316 373.305,149.814 372.065,149.541C371.93,149.511 370.01,149.265 371.744,151.235C371.764,151.257 379.161,152.332 384.131,144.353C384.209,144.228 384.317,144.116 384.361,143.975C384.383,143.904 384.389,143.743 384.316,143.757Z" style="fill:white;"/>
                </g>
                <g transform="matrix(1.618573,0,0,0.395268,0,-18.847282)">
                    <path d="M352.442,153.675C352.454,153.77 352.424,153.943 352.614,153.808C352.705,153.744 355.482,150.676 356.727,147.148C360.476,136.52 353.277,126.954 345.478,118.649C345.33,118.492 344.967,118.5 345.131,118.841C345.68,119.977 356.582,133.331 355.995,143.838C355.673,149.586 352.422,153.521 352.442,153.675Z" style="fill:white;"/>
                </g>
                <g transform="matrix(6.856625,0,0,1.557075,-1975.530737,-176.520394)">
                    <circle cx="377.5" cy="133.5" r="0.5"/>
                </g>
                <g transform="matrix(1.08151,-0.042384,0.173556,0.264113,190.05278,22.839079)">
                    <path d="M421.936,176.043C421.96,176.521 421.636,176.974 421.661,177.451C421.661,177.453 424.905,183.455 424.538,186.515C424.479,187.006 424.43,188.091 422.061,187.071C420.989,186.609 417.248,184.482 415.473,179.138C415.444,179.05 415.462,178.932 415.391,178.873C415.042,178.583 414.602,178.417 414.253,178.127C414.094,178.554 413.667,178.846 413.507,179.272C413.347,179.701 414.955,188.018 421.375,190.533C426.174,192.413 431.655,188.351 423.823,177.159C423.655,176.919 423.568,176.591 423.316,176.442C422.688,176.071 422.568,176.417 421.936,176.043Z" style="fill:white;"/>
                </g>
                <g transform="matrix(1.08151,-0.042384,0.173556,0.264113,190.05278,22.839079)">
                    <path d="M413.385,176.948C413.341,177.432 413.035,177.866 412.99,178.349C412.986,178.401 414.888,182.452 415.118,187.064C415.166,188.03 415.152,191.077 413.866,191.212C408.643,191.761 407.93,182.156 406.972,173.466C406.959,173.35 406.9,173.395 405.935,172.438C405.8,172.871 405.171,173.028 405.036,173.462C404.941,173.766 405.154,179.197 405.173,179.695C405.356,184.366 405.912,194.996 413.985,194.473C419.149,194.139 419.236,186.024 415.021,178.032C414.928,177.854 414.901,177.614 414.734,177.503C414.117,177.095 414,177.356 413.385,176.948Z" style="fill:white;"/>
                </g>
            </g>
        </g>
    </g>
</svg>
